<svg xmlns="http://www.w3.org/2000/svg" width="24" height="24" viewBox="0 0 24 24" fill="none" stroke="currentColor" stroke-width="2" stroke-linecap="round" stroke-linejoin="round">
  <path d="M12 8c2.648 0 5.028 0 6.14.602.548.295 1.033.779 1.329 1.327.602 1.112.602 3.491.602 6.14 0 2.648 0 5.028-.602 6.14-.296.548-.78 1.033-1.329 1.329-1.112.602-3.492.602-6.14.602-2.679 0-5.028 0-6.14-.602a3.012 3.012 0 0 1-1.329-1.329c-.602-1.112-.602-3.491-.602-6.14 0-2.648 0-5.028.602-6.14.295-.548.78-1.033 1.329-1.329C6.972 8 9.351 8 12 8Z"></path>
  <path d="M15 11a1 1 0 1 0 0-2 1 1 0 0 0 0 2Z"></path>
  <path d="M9 11a1 1 0 1 0 0-2 1 1 0 0 0 0 2Z"></path>
  <path d="M16 14.5c0 1.5-2 3-4 3s-4-1.5-4-3"></path>
</svg>

